<?xml version="1.0" encoding="UTF-8"?>
<!DOCTYPE svg PUBLIC "-//W3C//DTD SVG 1.1//EN" "http://www.w3.org/Graphics/SVG/1.1/DTD/svg11.dtd">
<svg xmlns="http://www.w3.org/2000/svg" version="1.1" width="400px" height="400px" style="shape-rendering:geometricPrecision; text-rendering:geometricPrecision; image-rendering:optimizeQuality; fill-rule:evenodd; clip-rule:evenodd" xmlns:xlink="http://www.w3.org/1999/xlink">
<g><path style="opacity:0.983" fill="#1efe8c" d="M 298.5,55.5 C 297.662,55.8417 297.328,56.5084 297.5,57.5C 296.662,57.8417 296.328,58.5084 296.5,59.5C 296.5,60.5 296.5,61.5 296.5,62.5C 295.549,63.9187 295.216,65.5853 295.5,67.5C 295.719,68.675 295.386,69.675 294.5,70.5C 293.148,69.4756 291.815,68.4756 290.5,67.5C 288.5,63.5 286.5,63.5 284.5,67.5C 268.537,81.6264 252.704,95.9598 237,110.5C 224.295,102.967 211.462,95.6334 198.5,88.5C 166.67,106.581 135.003,124.914 103.5,143.5C 102.167,141.5 100.833,139.5 99.5,137.5C 132.3,117.929 165.3,98.596 198.5,79.5C 211.082,86.7072 223.582,94.0406 236,101.5C 248.193,90.832 260.026,79.832 271.5,68.5C 272.167,68.5 272.5,68.1667 272.5,67.5C 275.579,65.5332 278.412,63.1999 281,60.5C 281.585,59.0024 281.085,58.0024 279.5,57.5C 279.027,56.0937 278.027,55.427 276.5,55.5C 275.766,54.2921 275.433,52.9587 275.5,51.5C 283.299,50.4735 290.965,48.8068 298.5,46.5C 298.742,49.319 298.742,52.319 298.5,55.5 Z"/></g>
<g><path style="opacity:0.738" fill="#f5f3f6" d="M 276.5,55.5 C 278.027,55.427 279.027,56.0937 279.5,57.5C 198.499,57.3333 117.499,57.5 36.5,58C 35.0692,58.4652 33.9025,59.2986 33,60.5C 32.3333,63.1667 32.3333,65.8333 33,68.5C 54.9811,149.751 76.9811,231.084 99,312.5C 101.869,315.704 105.035,318.537 108.5,321C 139,331.833 169.5,342.667 200,353.5C 230.243,342.864 260.409,332.03 290.5,321C 294.904,319.223 298.404,316.39 301,312.5C 324.25,230.841 346.583,148.841 368,66.5C 369.222,62.7536 368.056,60.0869 364.5,58.5C 342.34,57.5026 320.006,57.1692 297.5,57.5C 297.328,56.5084 297.662,55.8417 298.5,55.5C 321.169,55.3334 343.836,55.5 366.5,56C 369.839,57.8856 371.173,60.7189 370.5,64.5C 349.338,145.145 328.172,225.812 307,306.5C 305.103,313.729 300.936,319.229 294.5,323C 263.187,334.532 231.687,345.365 200,355.5C 168.74,345.218 137.574,334.385 106.5,323C 97.9163,316.681 92.7496,308.181 91,297.5C 71,221.5 51,145.5 31,69.5C 29.466,64.1602 30.6326,59.6602 34.5,56C 115.166,55.5 195.833,55.3333 276.5,55.5 Z"/></g>
<g><path style="opacity:1" fill="#574169" d="M 297.5,57.5 C 320.006,57.1692 342.34,57.5026 364.5,58.5C 341.758,58.1778 319.092,58.5111 296.5,59.5C 296.328,58.5084 296.662,57.8417 297.5,57.5 Z"/></g>
<g><path style="opacity:1" fill="#330838" d="M 279.5,57.5 C 281.085,58.0024 281.585,59.0024 281,60.5C 278.412,63.1999 275.579,65.5332 272.5,67.5C 197.833,67.3333 123.166,67.5 48.5,68C 47.944,68.3826 47.6107,68.8826 47.5,69.5C 45.9735,70.4919 45.3068,71.9919 45.5,74C 52.1676,102.179 59.6676,130.013 68,157.5C 79.866,207.912 93.1993,257.912 108,307.5C 110.341,310.835 113.507,313.002 117.5,314C 145.028,323.596 172.528,333.429 200,343.5C 228.969,332.84 258.135,322.34 287.5,312C 289.624,310.878 291.457,309.378 293,307.5C 313.822,230.544 334.489,153.544 355,76.5C 356.221,71.6048 354.387,68.6048 349.5,67.5C 332.008,66.5033 314.341,66.1699 296.5,66.5C 296.5,65.1667 296.5,63.8333 296.5,62.5C 296.5,61.5 296.5,60.5 296.5,59.5C 319.092,58.5111 341.758,58.1778 364.5,58.5C 368.056,60.0869 369.222,62.7536 368,66.5C 346.583,148.841 324.25,230.841 301,312.5C 298.404,316.39 294.904,319.223 290.5,321C 260.409,332.03 230.243,342.864 200,353.5C 169.5,342.667 139,331.833 108.5,321C 105.035,318.537 101.869,315.704 99,312.5C 76.9811,231.084 54.9811,149.751 33,68.5C 32.3333,65.8333 32.3333,63.1667 33,60.5C 33.9025,59.2986 35.0692,58.4652 36.5,58C 117.499,57.5 198.499,57.3333 279.5,57.5 Z"/></g>
<g><path style="opacity:1" fill="#515367" d="M 290.5,67.5 C 288.5,67.5 286.5,67.5 284.5,67.5C 286.5,63.5 288.5,63.5 290.5,67.5 Z"/></g>
<g><path style="opacity:1" fill="#6c6080" d="M 296.5,62.5 C 296.5,63.8333 296.5,65.1667 296.5,66.5C 314.341,66.1699 332.008,66.5033 349.5,67.5C 331.5,67.5 313.5,67.5 295.5,67.5C 295.216,65.5853 295.549,63.9187 296.5,62.5 Z"/></g>
<g><path style="opacity:1" fill="#eaeaf0" d="M 272.5,67.5 C 272.5,68.1667 272.167,68.5 271.5,68.5C 196.792,68.1729 122.125,68.5062 47.5,69.5C 47.6107,68.8826 47.944,68.3826 48.5,68C 123.166,67.5 197.833,67.3333 272.5,67.5 Z"/></g>
<g><path style="opacity:1" fill="#fcfcfd" d="M 284.5,67.5 C 286.5,67.5 288.5,67.5 290.5,67.5C 291.815,68.4756 293.148,69.4756 294.5,70.5C 295.386,69.675 295.719,68.675 295.5,67.5C 313.5,67.5 331.5,67.5 349.5,67.5C 354.387,68.6048 356.221,71.6048 355,76.5C 334.489,153.544 313.822,230.544 293,307.5C 291.457,309.378 289.624,310.878 287.5,312C 258.135,322.34 228.969,332.84 200,343.5C 172.528,333.429 145.028,323.596 117.5,314C 113.507,313.002 110.341,310.835 108,307.5C 93.1993,257.912 79.866,207.912 68,157.5C 59.6676,130.013 52.1676,102.179 45.5,74C 45.3068,71.9919 45.9735,70.4919 47.5,69.5C 122.125,68.5062 196.792,68.1729 271.5,68.5C 260.026,79.832 248.193,90.832 236,101.5C 223.582,94.0406 211.082,86.7072 198.5,79.5C 165.3,98.596 132.3,117.929 99.5,137.5C 100.833,139.5 102.167,141.5 103.5,143.5C 135.003,124.914 166.67,106.581 198.5,88.5C 211.462,95.6334 224.295,102.967 237,110.5C 252.704,95.9598 268.537,81.6264 284.5,67.5 Z"/></g>
<g><path style="opacity:1" fill="#2e0032" d="M 283.5,71.5 C 284.499,118.33 284.832,165.33 284.5,212.5C 277.5,212.5 270.5,212.5 263.5,212.5C 263.5,171.833 263.5,131.167 263.5,90.5C 270.14,84.1944 276.807,77.8611 283.5,71.5 Z"/></g>
<g><path style="opacity:1" fill="#2e0032" d="M 209.5,98.5 C 209.5,136.5 209.5,174.5 209.5,212.5C 202.5,212.5 195.5,212.5 188.5,212.5C 188.5,174.833 188.5,137.167 188.5,99.5C 191.521,96.5641 195.021,94.2308 199,92.5C 202.378,94.7114 205.878,96.7114 209.5,98.5 Z"/></g>
<g><path style="opacity:1" fill="#52c7e1" d="M 172.5,107.5 C 173.498,142.329 173.832,177.329 173.5,212.5C 166.5,212.5 159.5,212.5 152.5,212.5C 152.5,181.833 152.5,151.167 152.5,120.5C 159.13,116.18 165.797,111.847 172.5,107.5 Z"/></g>
<g><path style="opacity:1" fill="#816684" d="M 283.5,71.5 C 283.56,70.9569 283.893,70.6236 284.5,70.5C 285.831,118.332 285.831,165.998 284.5,213.5C 284.5,213.167 284.5,212.833 284.5,212.5C 284.832,165.33 284.499,118.33 283.5,71.5 Z"/></g>
<g><path style="opacity:1" fill="#87d8ea" d="M 172.5,107.5 C 172.56,106.957 172.893,106.624 173.5,106.5C 174.5,142.16 174.833,177.827 174.5,213.5C 166.833,213.5 159.167,213.5 151.5,213.5C 151.169,182.329 151.502,151.329 152.5,120.5C 152.5,151.167 152.5,181.833 152.5,212.5C 159.5,212.5 166.5,212.5 173.5,212.5C 173.832,177.329 173.498,142.329 172.5,107.5 Z"/></g>
<g><path style="opacity:1" fill="#2e0032" d="M 135.5,128.5 C 136.498,156.328 136.831,184.328 136.5,212.5C 129.5,212.5 122.5,212.5 115.5,212.5C 115.5,188.5 115.5,164.5 115.5,140.5C 121.827,136 128.494,132 135.5,128.5 Z"/></g>
<g><path style="opacity:1" fill="#5f3b62" d="M 209.5,98.5 C 210.499,136.663 210.832,174.996 210.5,213.5C 202.833,213.5 195.167,213.5 187.5,213.5C 187.168,175.33 187.501,137.33 188.5,99.5C 188.5,137.167 188.5,174.833 188.5,212.5C 195.5,212.5 202.5,212.5 209.5,212.5C 209.5,174.5 209.5,136.5 209.5,98.5 Z"/></g>
<g><path style="opacity:1" fill="#542e57" d="M 263.5,90.5 C 263.5,131.167 263.5,171.833 263.5,212.5C 270.5,212.5 277.5,212.5 284.5,212.5C 284.5,212.833 284.5,213.167 284.5,213.5C 277.167,213.5 269.833,213.5 262.5,213.5C 262.168,172.33 262.501,131.33 263.5,90.5 Z"/></g>
<g><path style="opacity:1" fill="#69486c" d="M 135.5,128.5 C 135.56,127.957 135.893,127.624 136.5,127.5C 137.5,156.159 137.833,184.826 137.5,213.5C 129.833,213.5 122.167,213.5 114.5,213.5C 114.169,188.994 114.502,164.661 115.5,140.5C 115.5,164.5 115.5,188.5 115.5,212.5C 122.5,212.5 129.5,212.5 136.5,212.5C 136.831,184.328 136.498,156.328 135.5,128.5 Z"/></g>
<g><path style="opacity:1" fill="#88d8ea" d="M 246.5,108.5 C 246.56,107.957 246.893,107.624 247.5,107.5C 248.5,142.827 248.833,178.16 248.5,213.5C 240.833,213.5 233.167,213.5 225.5,213.5C 225.168,178.329 225.502,143.329 226.5,108.5C 226.5,143.167 226.5,177.833 226.5,212.5C 233.5,212.5 240.5,212.5 247.5,212.5C 247.832,177.663 247.498,142.996 246.5,108.5 Z"/></g>
<g><path style="opacity:1" fill="#52c7e1" d="M 226.5,108.5 C 229.887,110.275 233.387,111.942 237,113.5C 240.099,111.701 243.265,110.034 246.5,108.5C 247.498,142.996 247.832,177.663 247.5,212.5C 240.5,212.5 233.5,212.5 226.5,212.5C 226.5,177.833 226.5,143.167 226.5,108.5 Z"/></g>
<g><path style="opacity:1" fill="#360939" d="M 112.5,223.5 C 118.5,223.5 124.5,223.5 130.5,223.5C 130.5,225.167 130.5,226.833 130.5,228.5C 126.5,228.5 122.5,228.5 118.5,228.5C 118.5,230.833 118.5,233.167 118.5,235.5C 121.833,235.5 125.167,235.5 128.5,235.5C 128.5,237.167 128.5,238.833 128.5,240.5C 125.167,240.5 121.833,240.5 118.5,240.5C 118.5,244.167 118.5,247.833 118.5,251.5C 116.5,251.5 114.5,251.5 112.5,251.5C 112.5,242.167 112.5,232.833 112.5,223.5 Z"/></g>
<g><path style="opacity:1" fill="#360a3a" d="M 133.5,223.5 C 138.511,223.334 143.511,223.501 148.5,224C 155.332,228.139 156.332,233.472 151.5,240C 147.637,241.354 143.637,241.854 139.5,241.5C 139.5,244.833 139.5,248.167 139.5,251.5C 137.5,251.5 135.5,251.5 133.5,251.5C 133.5,242.167 133.5,232.833 133.5,223.5 Z"/></g>
<g><path style="opacity:1" fill="#330637" d="M 158.5,223.5 C 160.5,223.5 162.5,223.5 164.5,223.5C 164.5,231.167 164.5,238.833 164.5,246.5C 168.5,246.5 172.5,246.5 176.5,246.5C 176.5,248.167 176.5,249.833 176.5,251.5C 170.5,251.5 164.5,251.5 158.5,251.5C 158.5,242.167 158.5,232.833 158.5,223.5 Z"/></g>
<g><path style="opacity:1" fill="#320435" d="M 194.5,234.5 C 197.625,235.479 200.958,235.813 204.5,235.5C 204.5,236.833 204.5,238.167 204.5,239.5C 201.167,239.5 197.833,239.5 194.5,239.5C 194.5,241.833 194.5,244.167 194.5,246.5C 198.5,246.5 202.5,246.5 206.5,246.5C 206.5,248.167 206.5,249.833 206.5,251.5C 200.5,251.5 194.5,251.5 188.5,251.5C 188.5,242.167 188.5,232.833 188.5,223.5C 194.5,223.5 200.5,223.5 206.5,223.5C 206.5,225.167 206.5,226.833 206.5,228.5C 202.5,228.5 198.5,228.5 194.5,228.5C 194.5,230.5 194.5,232.5 194.5,234.5 Z"/></g>
<g><path style="opacity:1" fill="#330637" d="M 210.5,223.5 C 212.5,223.5 214.5,223.5 216.5,223.5C 216.5,231.167 216.5,238.833 216.5,246.5C 220.5,246.5 224.5,246.5 228.5,246.5C 228.5,248.167 228.5,249.833 228.5,251.5C 222.5,251.5 216.5,251.5 210.5,251.5C 210.5,242.167 210.5,232.833 210.5,223.5 Z"/></g>
<g><path style="opacity:1" fill="#350838" d="M 231.5,223.5 C 233.5,223.5 235.5,223.5 237.5,223.5C 237.5,232.833 237.5,242.167 237.5,251.5C 235.5,251.5 233.5,251.5 231.5,251.5C 231.5,242.167 231.5,232.833 231.5,223.5 Z"/></g>
<g><path style="opacity:1" fill="#330536" d="M 240.5,223.5 C 248.5,223.5 256.5,223.5 264.5,223.5C 264.5,225.167 264.5,226.833 264.5,228.5C 261.5,228.5 258.5,228.5 255.5,228.5C 255.5,236.167 255.5,243.833 255.5,251.5C 253.5,251.5 251.5,251.5 249.5,251.5C 249.5,243.833 249.5,236.167 249.5,228.5C 246.5,228.5 243.5,228.5 240.5,228.5C 240.5,226.833 240.5,225.167 240.5,223.5 Z"/></g>
<g><path style="opacity:1" fill="#320435" d="M 273.5,234.5 C 276.625,235.479 279.958,235.813 283.5,235.5C 283.5,236.833 283.5,238.167 283.5,239.5C 280.167,239.5 276.833,239.5 273.5,239.5C 273.5,241.833 273.5,244.167 273.5,246.5C 277.5,246.5 281.5,246.5 285.5,246.5C 285.5,248.167 285.5,249.833 285.5,251.5C 279.5,251.5 273.5,251.5 267.5,251.5C 267.5,242.167 267.5,232.833 267.5,223.5C 273.5,223.5 279.5,223.5 285.5,223.5C 285.5,225.167 285.5,226.833 285.5,228.5C 281.5,228.5 277.5,228.5 273.5,228.5C 273.5,230.5 273.5,232.5 273.5,234.5 Z"/></g>
<g><path style="opacity:1" fill="#fcfcfc" d="M 139.5,228.5 C 141.857,228.337 144.19,228.503 146.5,229C 148.725,231.025 149.059,233.358 147.5,236C 144.854,236.497 142.187,236.664 139.5,236.5C 139.5,233.833 139.5,231.167 139.5,228.5 Z"/></g>
<g><path style="opacity:1" fill="#6f4f72" d="M 194.5,234.5 C 198.167,234.5 201.833,234.5 205.5,234.5C 205.784,236.415 205.451,238.081 204.5,239.5C 204.5,238.167 204.5,236.833 204.5,235.5C 200.958,235.813 197.625,235.479 194.5,234.5 Z"/></g>
<g><path style="opacity:1" fill="#6f4f72" d="M 273.5,234.5 C 277.167,234.5 280.833,234.5 284.5,234.5C 284.784,236.415 284.451,238.081 283.5,239.5C 283.5,238.167 283.5,236.833 283.5,235.5C 279.958,235.813 276.625,235.479 273.5,234.5 Z"/></g>
<g><path style="opacity:1" fill="#2d0032" d="M 112.5,268.5 C 114.167,268.5 115.833,268.5 117.5,268.5C 117.5,277.833 117.5,287.167 117.5,296.5C 115.833,296.5 114.167,296.5 112.5,296.5C 112.5,287.167 112.5,277.833 112.5,268.5 Z"/></g>
<g><path style="opacity:1" fill="#2f0133" d="M 138.5,282.5 C 138.56,283.043 138.893,283.376 139.5,283.5C 140.494,278.544 140.827,273.544 140.5,268.5C 142.167,268.5 143.833,268.5 145.5,268.5C 145.666,277.839 145.5,287.173 145,296.5C 140.298,291.63 135.465,286.963 130.5,282.5C 130.44,281.957 130.107,281.624 129.5,281.5C 128.506,286.456 128.173,291.456 128.5,296.5C 126.833,296.5 125.167,296.5 123.5,296.5C 123.334,287.161 123.5,277.827 124,268.5C 128.702,273.37 133.535,278.037 138.5,282.5 Z"/></g>
<g><path style="opacity:1" fill="#978099" d="M 140.5,268.5 C 140.827,273.544 140.494,278.544 139.5,283.5C 138.893,283.376 138.56,283.043 138.5,282.5C 139.167,277.833 139.833,273.167 140.5,268.5 Z"/></g>
<g><path style="opacity:1" fill="#350839" d="M 154.5,268.5 C 158.182,268.335 161.848,268.501 165.5,269C 170.125,270.243 170.292,272.41 166,275.5C 163.083,273.607 159.916,273.107 156.5,274C 155.167,275.333 155.167,276.667 156.5,278C 161.605,279.028 166.105,281.195 170,284.5C 171.098,288.505 170.265,292.005 167.5,295C 162.924,296.476 158.257,296.81 153.5,296C 148.414,294.115 148.247,291.948 153,289.5C 156.238,291.427 159.738,291.927 163.5,291C 164.747,289.506 164.747,288.006 163.5,286.5C 158.611,285.972 154.444,283.972 151,280.5C 149.593,275.643 150.76,271.643 154.5,268.5 Z"/></g>
<g><path style="opacity:1" fill="#2d0032" d="M 174.5,268.5 C 176.167,268.5 177.833,268.5 179.5,268.5C 179.5,277.833 179.5,287.167 179.5,296.5C 177.833,296.5 176.167,296.5 174.5,296.5C 174.5,287.167 174.5,277.833 174.5,268.5 Z"/></g>
<g><path style="opacity:1" fill="#370b3b" d="M 192.5,268.5 C 196.182,268.335 199.848,268.501 203.5,269C 208.156,270.751 208.489,272.918 204.5,275.5C 196.475,271.256 191.475,273.422 189.5,282C 189.857,289.846 193.857,292.846 201.5,291C 202.406,289.301 202.739,287.467 202.5,285.5C 200.5,285.5 198.5,285.5 196.5,285.5C 196.5,283.833 196.5,282.167 196.5,280.5C 200.5,280.5 204.5,280.5 208.5,280.5C 208.666,284.846 208.499,289.179 208,293.5C 205.129,295.862 201.796,296.862 198,296.5C 189.117,296.118 184.283,291.451 183.5,282.5C 184.022,276.096 187.022,271.429 192.5,268.5 Z"/></g>
<g><path style="opacity:1" fill="#310335" d="M 213.5,268.5 C 215.167,268.5 216.833,268.5 218.5,268.5C 218.5,272.167 218.5,275.833 218.5,279.5C 222.5,279.5 226.5,279.5 230.5,279.5C 230.5,275.833 230.5,272.167 230.5,268.5C 232.5,268.5 234.5,268.5 236.5,268.5C 236.5,277.833 236.5,287.167 236.5,296.5C 234.5,296.5 232.5,296.5 230.5,296.5C 230.5,292.5 230.5,288.5 230.5,284.5C 226.5,284.5 222.5,284.5 218.5,284.5C 218.5,288.5 218.5,292.5 218.5,296.5C 216.833,296.5 215.167,296.5 213.5,296.5C 213.5,287.167 213.5,277.833 213.5,268.5 Z"/></g>
<g><path style="opacity:1" fill="#2d0032" d="M 240.5,268.5 C 248.167,268.5 255.833,268.5 263.5,268.5C 263.5,270.167 263.5,271.833 263.5,273.5C 260.5,273.5 257.5,273.5 254.5,273.5C 254.5,281.167 254.5,288.833 254.5,296.5C 252.833,296.5 251.167,296.5 249.5,296.5C 249.5,288.833 249.5,281.167 249.5,273.5C 246.5,273.5 243.5,273.5 240.5,273.5C 240.5,271.833 240.5,270.167 240.5,268.5 Z"/></g>
<g><path style="opacity:1" fill="#350839" d="M 270.5,268.5 C 274.182,268.335 277.848,268.501 281.5,269C 286.125,270.243 286.292,272.41 282,275.5C 279.083,273.607 275.916,273.107 272.5,274C 271.167,275.333 271.167,276.667 272.5,278C 277.605,279.028 282.105,281.195 286,284.5C 287.098,288.505 286.265,292.005 283.5,295C 278.924,296.476 274.257,296.81 269.5,296C 264.414,294.115 264.247,291.948 269,289.5C 272.238,291.427 275.738,291.927 279.5,291C 280.747,289.506 280.747,288.006 279.5,286.5C 274.611,285.972 270.444,283.972 267,280.5C 265.593,275.643 266.76,271.643 270.5,268.5 Z"/></g>
<g><path style="opacity:1" fill="#978099" d="M 130.5,282.5 C 129.833,287.167 129.167,291.833 128.5,296.5C 128.173,291.456 128.506,286.456 129.5,281.5C 130.107,281.624 130.44,281.957 130.5,282.5 Z"/></g>
</svg>
